<?xml version="1.0" encoding="UTF-8"?>
        <!DOCTYPE svg PUBLIC "-//W3C//DTD SVG 1.1//EN"
           "http://www.w3.org/Graphics/SVG/1.1/DTD/svg11.dtd">

        <svg xmlns="http://www.w3.org/2000/svg" class="pyqrcode"
             width="140" height="140">
        <title>QR code</title>
        
        <line class="pyqrline" x1="4" y1="4" x2="32" y2="4"
              stroke="black" stroke-width="4"/>
        <line class="pyqrline" x1="40" y1="4" x2="44" y2="4"
              stroke="black" stroke-width="4"/>
        <line class="pyqrline" x1="52" y1="4" x2="60" y2="4"
              stroke="black" stroke-width="4"/>
        <line class="pyqrline" x1="76" y1="4" x2="92" y2="4"
              stroke="black" stroke-width="4"/>
        <line class="pyqrline" x1="108" y1="4" x2="136" y2="4"
              stroke="black" stroke-width="4"/>
        <line class="pyqrline" x1="4" y1="8" x2="8" y2="8"
              stroke="black" stroke-width="4"/>
        <line class="pyqrline" x1="28" y1="8" x2="32" y2="8"
              stroke="black" stroke-width="4"/>
        <line class="pyqrline" x1="40" y1="8" x2="48" y2="8"
              stroke="black" stroke-width="4"/>
        <line class="pyqrline" x1="56" y1="8" x2="60" y2="8"
              stroke="black" stroke-width="4"/>
        <line class="pyqrline" x1="64" y1="8" x2="76" y2="8"
              stroke="black" stroke-width="4"/>
        <line class="pyqrline" x1="80" y1="8" x2="88" y2="8"
              stroke="black" stroke-width="4"/>
        <line class="pyqrline" x1="92" y1="8" x2="96" y2="8"
              stroke="black" stroke-width="4"/>
        <line class="pyqrline" x1="100" y1="8" x2="104" y2="8"
              stroke="black" stroke-width="4"/>
        <line class="pyqrline" x1="108" y1="8" x2="112" y2="8"
              stroke="black" stroke-width="4"/>
        <line class="pyqrline" x1="132" y1="8" x2="136" y2="8"
              stroke="black" stroke-width="4"/>
        <line class="pyqrline" x1="4" y1="12" x2="8" y2="12"
              stroke="black" stroke-width="4"/>
        <line class="pyqrline" x1="12" y1="12" x2="24" y2="12"
              stroke="black" stroke-width="4"/>
        <line class="pyqrline" x1="28" y1="12" x2="32" y2="12"
              stroke="black" stroke-width="4"/>
        <line class="pyqrline" x1="44" y1="12" x2="48" y2="12"
              stroke="black" stroke-width="4"/>
        <line class="pyqrline" x1="52" y1="12" x2="56" y2="12"
              stroke="black" stroke-width="4"/>
        <line class="pyqrline" x1="60" y1="12" x2="64" y2="12"
              stroke="black" stroke-width="4"/>
        <line class="pyqrline" x1="68" y1="12" x2="72" y2="12"
              stroke="black" stroke-width="4"/>
        <line class="pyqrline" x1="84" y1="12" x2="88" y2="12"
              stroke="black" stroke-width="4"/>
        <line class="pyqrline" x1="92" y1="12" x2="96" y2="12"
              stroke="black" stroke-width="4"/>
        <line class="pyqrline" x1="100" y1="12" x2="104" y2="12"
              stroke="black" stroke-width="4"/>
        <line class="pyqrline" x1="108" y1="12" x2="112" y2="12"
              stroke="black" stroke-width="4"/>
        <line class="pyqrline" x1="116" y1="12" x2="128" y2="12"
              stroke="black" stroke-width="4"/>
        <line class="pyqrline" x1="132" y1="12" x2="136" y2="12"
              stroke="black" stroke-width="4"/>
        <line class="pyqrline" x1="4" y1="16" x2="8" y2="16"
              stroke="black" stroke-width="4"/>
        <line class="pyqrline" x1="12" y1="16" x2="24" y2="16"
              stroke="black" stroke-width="4"/>
        <line class="pyqrline" x1="28" y1="16" x2="32" y2="16"
              stroke="black" stroke-width="4"/>
        <line class="pyqrline" x1="40" y1="16" x2="44" y2="16"
              stroke="black" stroke-width="4"/>
        <line class="pyqrline" x1="56" y1="16" x2="60" y2="16"
              stroke="black" stroke-width="4"/>
        <line class="pyqrline" x1="68" y1="16" x2="72" y2="16"
              stroke="black" stroke-width="4"/>
        <line class="pyqrline" x1="80" y1="16" x2="84" y2="16"
              stroke="black" stroke-width="4"/>
        <line class="pyqrline" x1="88" y1="16" x2="104" y2="16"
              stroke="black" stroke-width="4"/>
        <line class="pyqrline" x1="108" y1="16" x2="112" y2="16"
              stroke="black" stroke-width="4"/>
        <line class="pyqrline" x1="116" y1="16" x2="128" y2="16"
              stroke="black" stroke-width="4"/>
        <line class="pyqrline" x1="132" y1="16" x2="136" y2="16"
              stroke="black" stroke-width="4"/>
        <line class="pyqrline" x1="4" y1="20" x2="8" y2="20"
              stroke="black" stroke-width="4"/>
        <line class="pyqrline" x1="12" y1="20" x2="24" y2="20"
              stroke="black" stroke-width="4"/>
        <line class="pyqrline" x1="28" y1="20" x2="32" y2="20"
              stroke="black" stroke-width="4"/>
        <line class="pyqrline" x1="36" y1="20" x2="40" y2="20"
              stroke="black" stroke-width="4"/>
        <line class="pyqrline" x1="60" y1="20" x2="64" y2="20"
              stroke="black" stroke-width="4"/>
        <line class="pyqrline" x1="68" y1="20" x2="84" y2="20"
              stroke="black" stroke-width="4"/>
        <line class="pyqrline" x1="88" y1="20" x2="96" y2="20"
              stroke="black" stroke-width="4"/>
        <line class="pyqrline" x1="100" y1="20" x2="104" y2="20"
              stroke="black" stroke-width="4"/>
        <line class="pyqrline" x1="108" y1="20" x2="112" y2="20"
              stroke="black" stroke-width="4"/>
        <line class="pyqrline" x1="116" y1="20" x2="128" y2="20"
              stroke="black" stroke-width="4"/>
        <line class="pyqrline" x1="132" y1="20" x2="136" y2="20"
              stroke="black" stroke-width="4"/>
        <line class="pyqrline" x1="4" y1="24" x2="8" y2="24"
              stroke="black" stroke-width="4"/>
        <line class="pyqrline" x1="28" y1="24" x2="32" y2="24"
              stroke="black" stroke-width="4"/>
        <line class="pyqrline" x1="48" y1="24" x2="52" y2="24"
              stroke="black" stroke-width="4"/>
        <line class="pyqrline" x1="56" y1="24" x2="60" y2="24"
              stroke="black" stroke-width="4"/>
        <line class="pyqrline" x1="64" y1="24" x2="72" y2="24"
              stroke="black" stroke-width="4"/>
        <line class="pyqrline" x1="76" y1="24" x2="92" y2="24"
              stroke="black" stroke-width="4"/>
        <line class="pyqrline" x1="100" y1="24" x2="104" y2="24"
              stroke="black" stroke-width="4"/>
        <line class="pyqrline" x1="108" y1="24" x2="112" y2="24"
              stroke="black" stroke-width="4"/>
        <line class="pyqrline" x1="132" y1="24" x2="136" y2="24"
              stroke="black" stroke-width="4"/>
        <line class="pyqrline" x1="4" y1="28" x2="32" y2="28"
              stroke="black" stroke-width="4"/>
        <line class="pyqrline" x1="36" y1="28" x2="40" y2="28"
              stroke="black" stroke-width="4"/>
        <line class="pyqrline" x1="44" y1="28" x2="48" y2="28"
              stroke="black" stroke-width="4"/>
        <line class="pyqrline" x1="52" y1="28" x2="56" y2="28"
              stroke="black" stroke-width="4"/>
        <line class="pyqrline" x1="60" y1="28" x2="64" y2="28"
              stroke="black" stroke-width="4"/>
        <line class="pyqrline" x1="68" y1="28" x2="72" y2="28"
              stroke="black" stroke-width="4"/>
        <line class="pyqrline" x1="76" y1="28" x2="80" y2="28"
              stroke="black" stroke-width="4"/>
        <line class="pyqrline" x1="84" y1="28" x2="88" y2="28"
              stroke="black" stroke-width="4"/>
        <line class="pyqrline" x1="92" y1="28" x2="96" y2="28"
              stroke="black" stroke-width="4"/>
        <line class="pyqrline" x1="100" y1="28" x2="104" y2="28"
              stroke="black" stroke-width="4"/>
        <line class="pyqrline" x1="108" y1="28" x2="136" y2="28"
              stroke="black" stroke-width="4"/>
        <line class="pyqrline" x1="4" y1="32" x2="4" y2="32"
              stroke="black" stroke-width="4"/>
        <line class="pyqrline" x1="36" y1="32" x2="40" y2="32"
              stroke="black" stroke-width="4"/>
        <line class="pyqrline" x1="48" y1="32" x2="56" y2="32"
              stroke="black" stroke-width="4"/>
        <line class="pyqrline" x1="60" y1="32" x2="64" y2="32"
              stroke="black" stroke-width="4"/>
        <line class="pyqrline" x1="80" y1="32" x2="84" y2="32"
              stroke="black" stroke-width="4"/>
        <line class="pyqrline" x1="92" y1="32" x2="100" y2="32"
              stroke="black" stroke-width="4"/>
        <line class="pyqrline" x1="12" y1="36" x2="20" y2="36"
              stroke="black" stroke-width="4"/>
        <line class="pyqrline" x1="28" y1="36" x2="40" y2="36"
              stroke="black" stroke-width="4"/>
        <line class="pyqrline" x1="44" y1="36" x2="48" y2="36"
              stroke="black" stroke-width="4"/>
        <line class="pyqrline" x1="52" y1="36" x2="56" y2="36"
              stroke="black" stroke-width="4"/>
        <line class="pyqrline" x1="60" y1="36" x2="64" y2="36"
              stroke="black" stroke-width="4"/>
        <line class="pyqrline" x1="72" y1="36" x2="80" y2="36"
              stroke="black" stroke-width="4"/>
        <line class="pyqrline" x1="84" y1="36" x2="100" y2="36"
              stroke="black" stroke-width="4"/>
        <line class="pyqrline" x1="104" y1="36" x2="112" y2="36"
              stroke="black" stroke-width="4"/>
        <line class="pyqrline" x1="116" y1="36" x2="120" y2="36"
              stroke="black" stroke-width="4"/>
        <line class="pyqrline" x1="4" y1="40" x2="12" y2="40"
              stroke="black" stroke-width="4"/>
        <line class="pyqrline" x1="16" y1="40" x2="28" y2="40"
              stroke="black" stroke-width="4"/>
        <line class="pyqrline" x1="36" y1="40" x2="40" y2="40"
              stroke="black" stroke-width="4"/>
        <line class="pyqrline" x1="44" y1="40" x2="48" y2="40"
              stroke="black" stroke-width="4"/>
        <line class="pyqrline" x1="60" y1="40" x2="72" y2="40"
              stroke="black" stroke-width="4"/>
        <line class="pyqrline" x1="88" y1="40" x2="112" y2="40"
              stroke="black" stroke-width="4"/>
        <line class="pyqrline" x1="116" y1="40" x2="136" y2="40"
              stroke="black" stroke-width="4"/>
        <line class="pyqrline" x1="4" y1="44" x2="12" y2="44"
              stroke="black" stroke-width="4"/>
        <line class="pyqrline" x1="20" y1="44" x2="36" y2="44"
              stroke="black" stroke-width="4"/>
        <line class="pyqrline" x1="52" y1="44" x2="80" y2="44"
              stroke="black" stroke-width="4"/>
        <line class="pyqrline" x1="84" y1="44" x2="88" y2="44"
              stroke="black" stroke-width="4"/>
        <line class="pyqrline" x1="96" y1="44" x2="104" y2="44"
              stroke="black" stroke-width="4"/>
        <line class="pyqrline" x1="108" y1="44" x2="116" y2="44"
              stroke="black" stroke-width="4"/>
        <line class="pyqrline" x1="120" y1="44" x2="124" y2="44"
              stroke="black" stroke-width="4"/>
        <line class="pyqrline" x1="132" y1="44" x2="136" y2="44"
              stroke="black" stroke-width="4"/>
        <line class="pyqrline" x1="4" y1="48" x2="8" y2="48"
              stroke="black" stroke-width="4"/>
        <line class="pyqrline" x1="12" y1="48" x2="24" y2="48"
              stroke="black" stroke-width="4"/>
        <line class="pyqrline" x1="32" y1="48" x2="36" y2="48"
              stroke="black" stroke-width="4"/>
        <line class="pyqrline" x1="44" y1="48" x2="60" y2="48"
              stroke="black" stroke-width="4"/>
        <line class="pyqrline" x1="68" y1="48" x2="72" y2="48"
              stroke="black" stroke-width="4"/>
        <line class="pyqrline" x1="80" y1="48" x2="84" y2="48"
              stroke="black" stroke-width="4"/>
        <line class="pyqrline" x1="92" y1="48" x2="96" y2="48"
              stroke="black" stroke-width="4"/>
        <line class="pyqrline" x1="104" y1="48" x2="120" y2="48"
              stroke="black" stroke-width="4"/>
        <line class="pyqrline" x1="124" y1="48" x2="128" y2="48"
              stroke="black" stroke-width="4"/>
        <line class="pyqrline" x1="4" y1="52" x2="8" y2="52"
              stroke="black" stroke-width="4"/>
        <line class="pyqrline" x1="28" y1="52" x2="32" y2="52"
              stroke="black" stroke-width="4"/>
        <line class="pyqrline" x1="36" y1="52" x2="44" y2="52"
              stroke="black" stroke-width="4"/>
        <line class="pyqrline" x1="52" y1="52" x2="72" y2="52"
              stroke="black" stroke-width="4"/>
        <line class="pyqrline" x1="76" y1="52" x2="84" y2="52"
              stroke="black" stroke-width="4"/>
        <line class="pyqrline" x1="88" y1="52" x2="92" y2="52"
              stroke="black" stroke-width="4"/>
        <line class="pyqrline" x1="96" y1="52" x2="100" y2="52"
              stroke="black" stroke-width="4"/>
        <line class="pyqrline" x1="104" y1="52" x2="108" y2="52"
              stroke="black" stroke-width="4"/>
        <line class="pyqrline" x1="116" y1="52" x2="120" y2="52"
              stroke="black" stroke-width="4"/>
        <line class="pyqrline" x1="124" y1="52" x2="128" y2="52"
              stroke="black" stroke-width="4"/>
        <line class="pyqrline" x1="12" y1="56" x2="24" y2="56"
              stroke="black" stroke-width="4"/>
        <line class="pyqrline" x1="32" y1="56" x2="36" y2="56"
              stroke="black" stroke-width="4"/>
        <line class="pyqrline" x1="40" y1="56" x2="44" y2="56"
              stroke="black" stroke-width="4"/>
        <line class="pyqrline" x1="48" y1="56" x2="64" y2="56"
              stroke="black" stroke-width="4"/>
        <line class="pyqrline" x1="76" y1="56" x2="88" y2="56"
              stroke="black" stroke-width="4"/>
        <line class="pyqrline" x1="96" y1="56" x2="100" y2="56"
              stroke="black" stroke-width="4"/>
        <line class="pyqrline" x1="104" y1="56" x2="108" y2="56"
              stroke="black" stroke-width="4"/>
        <line class="pyqrline" x1="120" y1="56" x2="124" y2="56"
              stroke="black" stroke-width="4"/>
        <line class="pyqrline" x1="128" y1="56" x2="132" y2="56"
              stroke="black" stroke-width="4"/>
        <line class="pyqrline" x1="28" y1="60" x2="32" y2="60"
              stroke="black" stroke-width="4"/>
        <line class="pyqrline" x1="40" y1="60" x2="44" y2="60"
              stroke="black" stroke-width="4"/>
        <line class="pyqrline" x1="52" y1="60" x2="56" y2="60"
              stroke="black" stroke-width="4"/>
        <line class="pyqrline" x1="64" y1="60" x2="72" y2="60"
              stroke="black" stroke-width="4"/>
        <line class="pyqrline" x1="80" y1="60" x2="88" y2="60"
              stroke="black" stroke-width="4"/>
        <line class="pyqrline" x1="92" y1="60" x2="96" y2="60"
              stroke="black" stroke-width="4"/>
        <line class="pyqrline" x1="100" y1="60" x2="112" y2="60"
              stroke="black" stroke-width="4"/>
        <line class="pyqrline" x1="116" y1="60" x2="120" y2="60"
              stroke="black" stroke-width="4"/>
        <line class="pyqrline" x1="128" y1="60" x2="136" y2="60"
              stroke="black" stroke-width="4"/>
        <line class="pyqrline" x1="4" y1="64" x2="8" y2="64"
              stroke="black" stroke-width="4"/>
        <line class="pyqrline" x1="12" y1="64" x2="16" y2="64"
              stroke="black" stroke-width="4"/>
        <line class="pyqrline" x1="24" y1="64" x2="28" y2="64"
              stroke="black" stroke-width="4"/>
        <line class="pyqrline" x1="32" y1="64" x2="36" y2="64"
              stroke="black" stroke-width="4"/>
        <line class="pyqrline" x1="48" y1="64" x2="56" y2="64"
              stroke="black" stroke-width="4"/>
        <line class="pyqrline" x1="64" y1="64" x2="68" y2="64"
              stroke="black" stroke-width="4"/>
        <line class="pyqrline" x1="76" y1="64" x2="80" y2="64"
              stroke="black" stroke-width="4"/>
        <line class="pyqrline" x1="100" y1="64" x2="104" y2="64"
              stroke="black" stroke-width="4"/>
        <line class="pyqrline" x1="108" y1="64" x2="112" y2="64"
              stroke="black" stroke-width="4"/>
        <line class="pyqrline" x1="124" y1="64" x2="136" y2="64"
              stroke="black" stroke-width="4"/>
        <line class="pyqrline" x1="4" y1="68" x2="4" y2="68"
              stroke="black" stroke-width="4"/>
        <line class="pyqrline" x1="16" y1="68" x2="24" y2="68"
              stroke="black" stroke-width="4"/>
        <line class="pyqrline" x1="28" y1="68" x2="32" y2="68"
              stroke="black" stroke-width="4"/>
        <line class="pyqrline" x1="36" y1="68" x2="40" y2="68"
              stroke="black" stroke-width="4"/>
        <line class="pyqrline" x1="60" y1="68" x2="64" y2="68"
              stroke="black" stroke-width="4"/>
        <line class="pyqrline" x1="72" y1="68" x2="80" y2="68"
              stroke="black" stroke-width="4"/>
        <line class="pyqrline" x1="84" y1="68" x2="104" y2="68"
              stroke="black" stroke-width="4"/>
        <line class="pyqrline" x1="112" y1="68" x2="116" y2="68"
              stroke="black" stroke-width="4"/>
        <line class="pyqrline" x1="120" y1="68" x2="124" y2="68"
              stroke="black" stroke-width="4"/>
        <line class="pyqrline" x1="128" y1="68" x2="136" y2="68"
              stroke="black" stroke-width="4"/>
        <line class="pyqrline" x1="4" y1="72" x2="4" y2="72"
              stroke="black" stroke-width="4"/>
        <line class="pyqrline" x1="8" y1="72" x2="20" y2="72"
              stroke="black" stroke-width="4"/>
        <line class="pyqrline" x1="24" y1="72" x2="28" y2="72"
              stroke="black" stroke-width="4"/>
        <line class="pyqrline" x1="36" y1="72" x2="44" y2="72"
              stroke="black" stroke-width="4"/>
        <line class="pyqrline" x1="48" y1="72" x2="56" y2="72"
              stroke="black" stroke-width="4"/>
        <line class="pyqrline" x1="64" y1="72" x2="68" y2="72"
              stroke="black" stroke-width="4"/>
        <line class="pyqrline" x1="72" y1="72" x2="88" y2="72"
              stroke="black" stroke-width="4"/>
        <line class="pyqrline" x1="92" y1="72" x2="108" y2="72"
              stroke="black" stroke-width="4"/>
        <line class="pyqrline" x1="116" y1="72" x2="120" y2="72"
              stroke="black" stroke-width="4"/>
        <line class="pyqrline" x1="128" y1="72" x2="132" y2="72"
              stroke="black" stroke-width="4"/>
        <line class="pyqrline" x1="24" y1="76" x2="40" y2="76"
              stroke="black" stroke-width="4"/>
        <line class="pyqrline" x1="44" y1="76" x2="52" y2="76"
              stroke="black" stroke-width="4"/>
        <line class="pyqrline" x1="60" y1="76" x2="64" y2="76"
              stroke="black" stroke-width="4"/>
        <line class="pyqrline" x1="68" y1="76" x2="76" y2="76"
              stroke="black" stroke-width="4"/>
        <line class="pyqrline" x1="88" y1="76" x2="96" y2="76"
              stroke="black" stroke-width="4"/>
        <line class="pyqrline" x1="120" y1="76" x2="132" y2="76"
              stroke="black" stroke-width="4"/>
        <line class="pyqrline" x1="8" y1="80" x2="16" y2="80"
              stroke="black" stroke-width="4"/>
        <line class="pyqrline" x1="20" y1="80" x2="24" y2="80"
              stroke="black" stroke-width="4"/>
        <line class="pyqrline" x1="36" y1="80" x2="40" y2="80"
              stroke="black" stroke-width="4"/>
        <line class="pyqrline" x1="44" y1="80" x2="52" y2="80"
              stroke="black" stroke-width="4"/>
        <line class="pyqrline" x1="60" y1="80" x2="68" y2="80"
              stroke="black" stroke-width="4"/>
        <line class="pyqrline" x1="72" y1="80" x2="76" y2="80"
              stroke="black" stroke-width="4"/>
        <line class="pyqrline" x1="84" y1="80" x2="88" y2="80"
              stroke="black" stroke-width="4"/>
        <line class="pyqrline" x1="92" y1="80" x2="104" y2="80"
              stroke="black" stroke-width="4"/>
        <line class="pyqrline" x1="112" y1="80" x2="132" y2="80"
              stroke="black" stroke-width="4"/>
        <line class="pyqrline" x1="12" y1="84" x2="20" y2="84"
              stroke="black" stroke-width="4"/>
        <line class="pyqrline" x1="28" y1="84" x2="32" y2="84"
              stroke="black" stroke-width="4"/>
        <line class="pyqrline" x1="40" y1="84" x2="44" y2="84"
              stroke="black" stroke-width="4"/>
        <line class="pyqrline" x1="48" y1="84" x2="60" y2="84"
              stroke="black" stroke-width="4"/>
        <line class="pyqrline" x1="64" y1="84" x2="68" y2="84"
              stroke="black" stroke-width="4"/>
        <line class="pyqrline" x1="72" y1="84" x2="84" y2="84"
              stroke="black" stroke-width="4"/>
        <line class="pyqrline" x1="92" y1="84" x2="100" y2="84"
              stroke="black" stroke-width="4"/>
        <line class="pyqrline" x1="112" y1="84" x2="120" y2="84"
              stroke="black" stroke-width="4"/>
        <line class="pyqrline" x1="124" y1="84" x2="128" y2="84"
              stroke="black" stroke-width="4"/>
        <line class="pyqrline" x1="132" y1="84" x2="136" y2="84"
              stroke="black" stroke-width="4"/>
        <line class="pyqrline" x1="4" y1="88" x2="8" y2="88"
              stroke="black" stroke-width="4"/>
        <line class="pyqrline" x1="12" y1="88" x2="24" y2="88"
              stroke="black" stroke-width="4"/>
        <line class="pyqrline" x1="32" y1="88" x2="36" y2="88"
              stroke="black" stroke-width="4"/>
        <line class="pyqrline" x1="40" y1="88" x2="64" y2="88"
              stroke="black" stroke-width="4"/>
        <line class="pyqrline" x1="72" y1="88" x2="84" y2="88"
              stroke="black" stroke-width="4"/>
        <line class="pyqrline" x1="88" y1="88" x2="92" y2="88"
              stroke="black" stroke-width="4"/>
        <line class="pyqrline" x1="96" y1="88" x2="100" y2="88"
              stroke="black" stroke-width="4"/>
        <line class="pyqrline" x1="116" y1="88" x2="120" y2="88"
              stroke="black" stroke-width="4"/>
        <line class="pyqrline" x1="128" y1="88" x2="136" y2="88"
              stroke="black" stroke-width="4"/>
        <line class="pyqrline" x1="4" y1="92" x2="4" y2="92"
              stroke="black" stroke-width="4"/>
        <line class="pyqrline" x1="20" y1="92" x2="32" y2="92"
              stroke="black" stroke-width="4"/>
        <line class="pyqrline" x1="40" y1="92" x2="44" y2="92"
              stroke="black" stroke-width="4"/>
        <line class="pyqrline" x1="48" y1="92" x2="52" y2="92"
              stroke="black" stroke-width="4"/>
        <line class="pyqrline" x1="56" y1="92" x2="60" y2="92"
              stroke="black" stroke-width="4"/>
        <line class="pyqrline" x1="72" y1="92" x2="76" y2="92"
              stroke="black" stroke-width="4"/>
        <line class="pyqrline" x1="84" y1="92" x2="100" y2="92"
              stroke="black" stroke-width="4"/>
        <line class="pyqrline" x1="112" y1="92" x2="116" y2="92"
              stroke="black" stroke-width="4"/>
        <line class="pyqrline" x1="120" y1="92" x2="128" y2="92"
              stroke="black" stroke-width="4"/>
        <line class="pyqrline" x1="132" y1="92" x2="136" y2="92"
              stroke="black" stroke-width="4"/>
        <line class="pyqrline" x1="4" y1="96" x2="4" y2="96"
              stroke="black" stroke-width="4"/>
        <line class="pyqrline" x1="8" y1="96" x2="24" y2="96"
              stroke="black" stroke-width="4"/>
        <line class="pyqrline" x1="32" y1="96" x2="44" y2="96"
              stroke="black" stroke-width="4"/>
        <line class="pyqrline" x1="52" y1="96" x2="68" y2="96"
              stroke="black" stroke-width="4"/>
        <line class="pyqrline" x1="72" y1="96" x2="76" y2="96"
              stroke="black" stroke-width="4"/>
        <line class="pyqrline" x1="80" y1="96" x2="84" y2="96"
              stroke="black" stroke-width="4"/>
        <line class="pyqrline" x1="88" y1="96" x2="96" y2="96"
              stroke="black" stroke-width="4"/>
        <line class="pyqrline" x1="100" y1="96" x2="104" y2="96"
              stroke="black" stroke-width="4"/>
        <line class="pyqrline" x1="116" y1="96" x2="124" y2="96"
              stroke="black" stroke-width="4"/>
        <line class="pyqrline" x1="128" y1="96" x2="136" y2="96"
              stroke="black" stroke-width="4"/>
        <line class="pyqrline" x1="4" y1="100" x2="8" y2="100"
              stroke="black" stroke-width="4"/>
        <line class="pyqrline" x1="12" y1="100" x2="32" y2="100"
              stroke="black" stroke-width="4"/>
        <line class="pyqrline" x1="40" y1="100" x2="44" y2="100"
              stroke="black" stroke-width="4"/>
        <line class="pyqrline" x1="52" y1="100" x2="56" y2="100"
              stroke="black" stroke-width="4"/>
        <line class="pyqrline" x1="60" y1="100" x2="64" y2="100"
              stroke="black" stroke-width="4"/>
        <line class="pyqrline" x1="76" y1="100" x2="80" y2="100"
              stroke="black" stroke-width="4"/>
        <line class="pyqrline" x1="96" y1="100" x2="120" y2="100"
              stroke="black" stroke-width="4"/>
        <line class="pyqrline" x1="124" y1="100" x2="128" y2="100"
              stroke="black" stroke-width="4"/>
        <line class="pyqrline" x1="36" y1="104" x2="40" y2="104"
              stroke="black" stroke-width="4"/>
        <line class="pyqrline" x1="48" y1="104" x2="60" y2="104"
              stroke="black" stroke-width="4"/>
        <line class="pyqrline" x1="64" y1="104" x2="80" y2="104"
              stroke="black" stroke-width="4"/>
        <line class="pyqrline" x1="84" y1="104" x2="104" y2="104"
              stroke="black" stroke-width="4"/>
        <line class="pyqrline" x1="116" y1="104" x2="124" y2="104"
              stroke="black" stroke-width="4"/>
        <line class="pyqrline" x1="128" y1="104" x2="136" y2="104"
              stroke="black" stroke-width="4"/>
        <line class="pyqrline" x1="4" y1="108" x2="32" y2="108"
              stroke="black" stroke-width="4"/>
        <line class="pyqrline" x1="36" y1="108" x2="40" y2="108"
              stroke="black" stroke-width="4"/>
        <line class="pyqrline" x1="44" y1="108" x2="48" y2="108"
              stroke="black" stroke-width="4"/>
        <line class="pyqrline" x1="60" y1="108" x2="72" y2="108"
              stroke="black" stroke-width="4"/>
        <line class="pyqrline" x1="80" y1="108" x2="84" y2="108"
              stroke="black" stroke-width="4"/>
        <line class="pyqrline" x1="88" y1="108" x2="92" y2="108"
              stroke="black" stroke-width="4"/>
        <line class="pyqrline" x1="96" y1="108" x2="104" y2="108"
              stroke="black" stroke-width="4"/>
        <line class="pyqrline" x1="108" y1="108" x2="112" y2="108"
              stroke="black" stroke-width="4"/>
        <line class="pyqrline" x1="116" y1="108" x2="124" y2="108"
              stroke="black" stroke-width="4"/>
        <line class="pyqrline" x1="132" y1="108" x2="136" y2="108"
              stroke="black" stroke-width="4"/>
        <line class="pyqrline" x1="4" y1="112" x2="8" y2="112"
              stroke="black" stroke-width="4"/>
        <line class="pyqrline" x1="28" y1="112" x2="32" y2="112"
              stroke="black" stroke-width="4"/>
        <line class="pyqrline" x1="44" y1="112" x2="56" y2="112"
              stroke="black" stroke-width="4"/>
        <line class="pyqrline" x1="64" y1="112" x2="72" y2="112"
              stroke="black" stroke-width="4"/>
        <line class="pyqrline" x1="76" y1="112" x2="88" y2="112"
              stroke="black" stroke-width="4"/>
        <line class="pyqrline" x1="100" y1="112" x2="104" y2="112"
              stroke="black" stroke-width="4"/>
        <line class="pyqrline" x1="116" y1="112" x2="120" y2="112"
              stroke="black" stroke-width="4"/>
        <line class="pyqrline" x1="124" y1="112" x2="132" y2="112"
              stroke="black" stroke-width="4"/>
        <line class="pyqrline" x1="4" y1="116" x2="8" y2="116"
              stroke="black" stroke-width="4"/>
        <line class="pyqrline" x1="12" y1="116" x2="24" y2="116"
              stroke="black" stroke-width="4"/>
        <line class="pyqrline" x1="28" y1="116" x2="32" y2="116"
              stroke="black" stroke-width="4"/>
        <line class="pyqrline" x1="40" y1="116" x2="44" y2="116"
              stroke="black" stroke-width="4"/>
        <line class="pyqrline" x1="48" y1="116" x2="56" y2="116"
              stroke="black" stroke-width="4"/>
        <line class="pyqrline" x1="68" y1="116" x2="72" y2="116"
              stroke="black" stroke-width="4"/>
        <line class="pyqrline" x1="84" y1="116" x2="88" y2="116"
              stroke="black" stroke-width="4"/>
        <line class="pyqrline" x1="92" y1="116" x2="132" y2="116"
              stroke="black" stroke-width="4"/>
        <line class="pyqrline" x1="4" y1="120" x2="8" y2="120"
              stroke="black" stroke-width="4"/>
        <line class="pyqrline" x1="12" y1="120" x2="24" y2="120"
              stroke="black" stroke-width="4"/>
        <line class="pyqrline" x1="28" y1="120" x2="32" y2="120"
              stroke="black" stroke-width="4"/>
        <line class="pyqrline" x1="36" y1="120" x2="40" y2="120"
              stroke="black" stroke-width="4"/>
        <line class="pyqrline" x1="52" y1="120" x2="56" y2="120"
              stroke="black" stroke-width="4"/>
        <line class="pyqrline" x1="60" y1="120" x2="72" y2="120"
              stroke="black" stroke-width="4"/>
        <line class="pyqrline" x1="76" y1="120" x2="84" y2="120"
              stroke="black" stroke-width="4"/>
        <line class="pyqrline" x1="88" y1="120" x2="100" y2="120"
              stroke="black" stroke-width="4"/>
        <line class="pyqrline" x1="108" y1="120" x2="112" y2="120"
              stroke="black" stroke-width="4"/>
        <line class="pyqrline" x1="4" y1="124" x2="8" y2="124"
              stroke="black" stroke-width="4"/>
        <line class="pyqrline" x1="12" y1="124" x2="24" y2="124"
              stroke="black" stroke-width="4"/>
        <line class="pyqrline" x1="28" y1="124" x2="32" y2="124"
              stroke="black" stroke-width="4"/>
        <line class="pyqrline" x1="36" y1="124" x2="52" y2="124"
              stroke="black" stroke-width="4"/>
        <line class="pyqrline" x1="56" y1="124" x2="64" y2="124"
              stroke="black" stroke-width="4"/>
        <line class="pyqrline" x1="68" y1="124" x2="72" y2="124"
              stroke="black" stroke-width="4"/>
        <line class="pyqrline" x1="80" y1="124" x2="84" y2="124"
              stroke="black" stroke-width="4"/>
        <line class="pyqrline" x1="88" y1="124" x2="112" y2="124"
              stroke="black" stroke-width="4"/>
        <line class="pyqrline" x1="124" y1="124" x2="128" y2="124"
              stroke="black" stroke-width="4"/>
        <line class="pyqrline" x1="4" y1="128" x2="8" y2="128"
              stroke="black" stroke-width="4"/>
        <line class="pyqrline" x1="28" y1="128" x2="32" y2="128"
              stroke="black" stroke-width="4"/>
        <line class="pyqrline" x1="48" y1="128" x2="68" y2="128"
              stroke="black" stroke-width="4"/>
        <line class="pyqrline" x1="76" y1="128" x2="88" y2="128"
              stroke="black" stroke-width="4"/>
        <line class="pyqrline" x1="92" y1="128" x2="104" y2="128"
              stroke="black" stroke-width="4"/>
        <line class="pyqrline" x1="116" y1="128" x2="124" y2="128"
              stroke="black" stroke-width="4"/>
        <line class="pyqrline" x1="4" y1="132" x2="32" y2="132"
              stroke="black" stroke-width="4"/>
        <line class="pyqrline" x1="40" y1="132" x2="44" y2="132"
              stroke="black" stroke-width="4"/>
        <line class="pyqrline" x1="52" y1="132" x2="60" y2="132"
              stroke="black" stroke-width="4"/>
        <line class="pyqrline" x1="68" y1="132" x2="84" y2="132"
              stroke="black" stroke-width="4"/>
        <line class="pyqrline" x1="100" y1="132" x2="104" y2="132"
              stroke="black" stroke-width="4"/>
        <line class="pyqrline" x1="120" y1="132" x2="132" y2="132"
              stroke="black" stroke-width="4"/></svg>
